<svg width="179" height="32" viewBox="0 0 179 32" fill="none" xmlns="http://www.w3.org/2000/svg">
<g filter="url(#filter0_d)">
<path d="M166.958 12.3584V15H165.723V7.89062H168.442C169.237 7.89062 169.867 8.09733 170.332 8.51074C170.801 8.92415 171.035 9.47103 171.035 10.1514C171.035 10.848 170.806 11.39 170.347 11.7773C169.891 12.1647 169.251 12.3584 168.428 12.3584H166.958ZM166.958 11.3672H168.442C168.882 11.3672 169.217 11.2646 169.448 11.0596C169.679 10.8512 169.795 10.5518 169.795 10.1611C169.795 9.77702 169.678 9.47103 169.443 9.24316C169.209 9.01204 168.887 8.89323 168.477 8.88672H166.958V11.3672Z" fill="#ECD614"/>
</g>
<path d="M168.002 0C161.926 0 157 4.83466 157 10.7987C157 13.8498 160.029 19.3159 160.029 19.3159L167.597 32L175.493 19.464C175.493 19.464 179 14.2487 179 10.7987C179.001 4.83466 174.075 0 168.002 0ZM167.951 20.4791C164.471 20.4791 161.652 13.9616 161.652 10.5198C161.652 7.08254 164.47 4.2995 167.951 4.2995C171.429 4.2995 174.25 7.08254 174.25 10.5198C174.25 13.9616 171.429 20.4791 167.951 20.4791Z" fill="#ECD614"/>
<path d="M8.64258 19.2695C8.64258 18.7161 8.44727 18.293 8.05664 18C7.66602 17.7005 6.96289 17.388 5.94727 17.0625C4.93164 16.7305 4.1276 16.4049 3.53516 16.0859C1.92057 15.2135 1.11328 14.0384 1.11328 12.5605C1.11328 11.7923 1.32812 11.1087 1.75781 10.5098C2.19401 9.9043 2.81576 9.43229 3.62305 9.09375C4.43685 8.75521 5.34831 8.58594 6.35742 8.58594C7.37305 8.58594 8.27799 8.77148 9.07227 9.14258C9.86654 9.50716 10.4818 10.0247 10.918 10.6953C11.3607 11.3659 11.582 12.1276 11.582 12.9805H8.65234C8.65234 12.3294 8.44727 11.8249 8.03711 11.4668C7.62695 11.1022 7.05078 10.9199 6.30859 10.9199C5.59245 10.9199 5.03581 11.0729 4.63867 11.3789C4.24154 11.6784 4.04297 12.0755 4.04297 12.5703C4.04297 13.0326 4.27409 13.4199 4.73633 13.7324C5.20508 14.0449 5.89193 14.3379 6.79688 14.6113C8.46354 15.1126 9.67773 15.7344 10.4395 16.4766C11.2012 17.2188 11.582 18.1432 11.582 19.25C11.582 20.4805 11.1165 21.4473 10.1855 22.1504C9.25456 22.847 8.0013 23.1953 6.42578 23.1953C5.33203 23.1953 4.33594 22.9967 3.4375 22.5996C2.53906 22.196 1.85221 21.6458 1.37695 20.9492C0.908203 20.2526 0.673828 19.4453 0.673828 18.5273H3.61328C3.61328 20.0964 4.55078 20.8809 6.42578 20.8809C7.1224 20.8809 7.66602 20.7409 8.05664 20.4609C8.44727 20.1745 8.64258 19.7773 8.64258 19.2695ZM16.3672 23H13.5352V12.4336H16.3672V23ZM13.3691 9.69922C13.3691 9.27604 13.5091 8.92773 13.7891 8.6543C14.0755 8.38086 14.4629 8.24414 14.9512 8.24414C15.4329 8.24414 15.8171 8.38086 16.1035 8.6543C16.39 8.92773 16.5332 9.27604 16.5332 9.69922C16.5332 10.1289 16.3867 10.4805 16.0938 10.7539C15.8073 11.0273 15.4264 11.1641 14.9512 11.1641C14.4759 11.1641 14.0918 11.0273 13.7988 10.7539C13.5124 10.4805 13.3691 10.1289 13.3691 9.69922ZM21.3477 12.4336L21.4355 13.6152C22.1842 12.6973 23.1966 12.2383 24.4727 12.2383C25.8333 12.2383 26.7676 12.7754 27.2754 13.8496C28.0176 12.7754 29.0755 12.2383 30.4492 12.2383C31.5951 12.2383 32.4479 12.5736 33.0078 13.2441C33.5677 13.9082 33.8477 14.9108 33.8477 16.252V23H31.0156V16.2617C31.0156 15.6628 30.8984 15.2266 30.6641 14.9531C30.4297 14.6732 30.0163 14.5332 29.4238 14.5332C28.5775 14.5332 27.9915 14.9368 27.666 15.7441L27.6758 23H24.8535V16.2715C24.8535 15.6595 24.7331 15.2168 24.4922 14.9434C24.2513 14.6699 23.8411 14.5332 23.2617 14.5332C22.4609 14.5332 21.8815 14.8652 21.5234 15.5293V23H18.7012V12.4336H21.3477ZM45.5371 17.8145C45.5371 19.4421 45.166 20.7474 44.4238 21.7305C43.6882 22.707 42.6921 23.1953 41.4355 23.1953C40.3678 23.1953 39.5052 22.8242 38.8477 22.082V27.0625H36.0254V12.4336H38.6426L38.7402 13.4688C39.4238 12.6484 40.3158 12.2383 41.416 12.2383C42.7181 12.2383 43.7305 12.7201 44.4531 13.6836C45.1758 14.6471 45.5371 15.9753 45.5371 17.668V17.8145ZM42.7148 17.6094C42.7148 16.6263 42.5391 15.8678 42.1875 15.334C41.8424 14.8001 41.3379 14.5332 40.6738 14.5332C39.7884 14.5332 39.1797 14.8717 38.8477 15.5488V19.875C39.1927 20.5716 39.8079 20.9199 40.6934 20.9199C42.041 20.9199 42.7148 19.8164 42.7148 17.6094ZM50.2734 23H47.4414V8H50.2734V23ZM57.4707 23.1953C55.9212 23.1953 54.6582 22.7201 53.6816 21.7695C52.7116 20.819 52.2266 19.5527 52.2266 17.9707V17.6973C52.2266 16.6361 52.4316 15.6888 52.8418 14.8555C53.252 14.0156 53.8314 13.3711 54.5801 12.9219C55.3353 12.4661 56.1947 12.2383 57.1582 12.2383C58.6035 12.2383 59.7396 12.694 60.5664 13.6055C61.3997 14.5169 61.8164 15.8092 61.8164 17.4824V18.6348H55.0879C55.179 19.3249 55.4525 19.8783 55.9082 20.2949C56.3704 20.7116 56.9531 20.9199 57.6562 20.9199C58.7435 20.9199 59.5931 20.526 60.2051 19.7383L61.5918 21.291C61.1686 21.89 60.5957 22.3587 59.873 22.6973C59.1504 23.0293 58.3496 23.1953 57.4707 23.1953ZM57.1484 14.5234C56.5885 14.5234 56.1328 14.7122 55.7812 15.0898C55.4362 15.4674 55.2148 16.0078 55.1172 16.7109H59.043V16.4863C59.0299 15.8613 58.8607 15.3796 58.5352 15.041C58.2096 14.696 57.7474 14.5234 57.1484 14.5234ZM71.5234 17.9902V23H68.5938V8.78125H74.1406C75.2083 8.78125 76.1458 8.97656 76.9531 9.36719C77.7669 9.75781 78.3919 10.3145 78.8281 11.0371C79.2643 11.7533 79.4824 12.5703 79.4824 13.4883C79.4824 14.8815 79.0039 15.9818 78.0469 16.7891C77.0964 17.5898 75.778 17.9902 74.0918 17.9902H71.5234ZM71.5234 15.6172H74.1406C74.9154 15.6172 75.5046 15.4349 75.9082 15.0703C76.3184 14.7057 76.5234 14.1849 76.5234 13.5078C76.5234 12.8112 76.3184 12.248 75.9082 11.8184C75.498 11.3887 74.9316 11.1673 74.209 11.1543H71.5234V15.6172ZM87.3242 23C87.194 22.7461 87.0996 22.4303 87.041 22.0527C86.3574 22.8145 85.4688 23.1953 84.375 23.1953C83.3398 23.1953 82.4805 22.8958 81.7969 22.2969C81.1198 21.6979 80.7812 20.9427 80.7812 20.0312C80.7812 18.9115 81.1947 18.0521 82.0215 17.4531C82.8548 16.8542 84.056 16.5514 85.625 16.5449H86.9238V15.9395C86.9238 15.4512 86.7969 15.0605 86.543 14.7676C86.2956 14.4746 85.9017 14.3281 85.3613 14.3281C84.8861 14.3281 84.5117 14.4421 84.2383 14.6699C83.9714 14.8978 83.8379 15.2103 83.8379 15.6074H81.0156C81.0156 14.9954 81.2044 14.429 81.582 13.9082C81.9596 13.3874 82.4935 12.9805 83.1836 12.6875C83.8737 12.388 84.6484 12.2383 85.5078 12.2383C86.8099 12.2383 87.8418 12.5671 88.6035 13.2246C89.3717 13.8757 89.7559 14.7936 89.7559 15.9785V20.5586C89.7624 21.5612 89.9023 22.3197 90.1758 22.834V23H87.3242ZM84.9902 21.0371C85.4069 21.0371 85.791 20.946 86.1426 20.7637C86.4941 20.5749 86.7546 20.3242 86.9238 20.0117V18.1953H85.8691C84.4564 18.1953 83.7044 18.6836 83.6133 19.6602L83.6035 19.8262C83.6035 20.1777 83.7272 20.4674 83.9746 20.6953C84.222 20.9232 84.5605 21.0371 84.9902 21.0371ZM97.8613 15.0801C97.4772 15.028 97.1387 15.002 96.8457 15.002C95.778 15.002 95.0781 15.3633 94.7461 16.0859V23H91.9238V12.4336H94.5898L94.668 13.6934C95.2344 12.7233 96.0189 12.2383 97.0215 12.2383C97.334 12.2383 97.627 12.2806 97.9004 12.3652L97.8613 15.0801ZM103.066 18.7617L102.051 19.7773V23H99.2285V8H102.051V16.3105L102.598 15.6074L105.303 12.4336H108.691L104.873 16.8379L109.023 23H105.781L103.066 18.7617ZM112.891 23H110.059V12.4336H112.891V23ZM109.893 9.69922C109.893 9.27604 110.033 8.92773 110.312 8.6543C110.599 8.38086 110.986 8.24414 111.475 8.24414C111.956 8.24414 112.34 8.38086 112.627 8.6543C112.913 8.92773 113.057 9.27604 113.057 9.69922C113.057 10.1289 112.91 10.4805 112.617 10.7539C112.331 11.0273 111.95 11.1641 111.475 11.1641C110.999 11.1641 110.615 11.0273 110.322 10.7539C110.036 10.4805 109.893 10.1289 109.893 9.69922ZM117.822 12.4336L117.91 13.6543C118.665 12.7103 119.678 12.2383 120.947 12.2383C122.067 12.2383 122.9 12.5671 123.447 13.2246C123.994 13.8822 124.274 14.8652 124.287 16.1738V23H121.465V16.2422C121.465 15.6432 121.335 15.2103 121.074 14.9434C120.814 14.6699 120.381 14.5332 119.775 14.5332C118.981 14.5332 118.385 14.8717 117.988 15.5488V23H115.166V12.4336H117.822ZM126.025 17.6387C126.025 16.0176 126.41 14.7122 127.178 13.7227C127.952 12.7331 128.994 12.2383 130.303 12.2383C131.462 12.2383 132.363 12.6354 133.008 13.4297L133.125 12.4336H135.684V22.6484C135.684 23.5729 135.472 24.377 135.049 25.0605C134.632 25.7441 134.043 26.265 133.281 26.623C132.52 26.9811 131.628 27.1602 130.605 27.1602C129.831 27.1602 129.076 27.0039 128.34 26.6914C127.604 26.3854 127.048 25.9883 126.67 25.5L127.92 23.7812C128.623 24.569 129.476 24.9629 130.479 24.9629C131.227 24.9629 131.81 24.7611 132.227 24.3574C132.643 23.9603 132.852 23.3939 132.852 22.6582V22.0918C132.201 22.8275 131.344 23.1953 130.283 23.1953C129.014 23.1953 127.985 22.7005 127.197 21.7109C126.416 20.7148 126.025 19.3965 126.025 17.7559V17.6387ZM128.848 17.8438C128.848 18.8008 129.04 19.5527 129.424 20.0996C129.808 20.64 130.335 20.9102 131.006 20.9102C131.865 20.9102 132.48 20.5879 132.852 19.9434V15.5C132.474 14.8555 131.865 14.5332 131.025 14.5332C130.348 14.5332 129.814 14.8099 129.424 15.3633C129.04 15.9167 128.848 16.7435 128.848 17.8438Z" fill="white"/>
<defs>
<filter id="filter0_d" x="161.723" y="7.89062" width="13.3125" height="15.1094" filterUnits="userSpaceOnUse" color-interpolation-filters="sRGB">
<feFlood flood-opacity="0" result="BackgroundImageFix"/>
<feColorMatrix in="SourceAlpha" type="matrix" values="0 0 0 0 0 0 0 0 0 0 0 0 0 0 0 0 0 0 127 0"/>
<feOffset dy="4"/>
<feGaussianBlur stdDeviation="2"/>
<feColorMatrix type="matrix" values="0 0 0 0 0 0 0 0 0 0 0 0 0 0 0 0 0 0 0.25 0"/>
<feBlend mode="normal" in2="BackgroundImageFix" result="effect1_dropShadow"/>
<feBlend mode="normal" in="SourceGraphic" in2="effect1_dropShadow" result="shape"/>
</filter>
</defs>
</svg>
